<mxfile host="app.diagrams.net" agent="Mozilla/5.0 (Windows NT 10.0; Win64; x64) AppleWebKit/537.36 (KHTML, like Gecko) Chrome/131.0.0.0 Safari/537.36 OPR/116.0.0.0 (Edition Yx 08)" version="26.0.9">
  <diagram name="Страница — 1" id="XASjYnROchEVnQ0i06pS">
    <mxGraphModel dx="1200" dy="673" grid="1" gridSize="10" guides="1" tooltips="1" connect="1" arrows="1" fold="1" page="1" pageScale="1" pageWidth="827" pageHeight="1169" math="0" shadow="0">
      <root>
        <mxCell id="0" />
        <mxCell id="1" parent="0" />
        <mxCell id="AfU-c1p0oRzA97W1R4Gb-15" value="Drone 2" style="swimlane;whiteSpace=wrap;html=1;" parent="1" vertex="1">
          <mxGeometry x="74" y="250" width="220" height="140" as="geometry">
            <mxRectangle x="140" y="230" width="140" height="30" as="alternateBounds" />
          </mxGeometry>
        </mxCell>
        <mxCell id="AfU-c1p0oRzA97W1R4Gb-6" value="" style="rhombus;whiteSpace=wrap;html=1;" parent="AfU-c1p0oRzA97W1R4Gb-15" vertex="1">
          <mxGeometry x="10" y="30" width="100" height="100" as="geometry" />
        </mxCell>
        <mxCell id="AfU-c1p0oRzA97W1R4Gb-9" value="" style="shape=image;verticalLabelPosition=bottom;labelBackgroundColor=default;verticalAlign=top;aspect=fixed;imageAspect=0;image=https://cdn-icons-png.flaticon.com/128/99/99466.png;" parent="AfU-c1p0oRzA97W1R4Gb-15" vertex="1">
          <mxGeometry x="60" y="65" width="30" height="30" as="geometry" />
        </mxCell>
        <mxCell id="AfU-c1p0oRzA97W1R4Gb-7" value="" style="shape=image;verticalLabelPosition=bottom;labelBackgroundColor=default;verticalAlign=top;aspect=fixed;imageAspect=0;image=https://cdn-icons-png.flaticon.com/128/2752/2752877.png;" parent="AfU-c1p0oRzA97W1R4Gb-15" vertex="1">
          <mxGeometry x="160" y="55" width="50" height="50" as="geometry" />
        </mxCell>
        <mxCell id="AfU-c1p0oRzA97W1R4Gb-14" value="" style="edgeStyle=orthogonalEdgeStyle;rounded=0;orthogonalLoop=1;jettySize=auto;html=1;exitX=0;exitY=0.5;exitDx=0;exitDy=0;entryX=1;entryY=0.5;entryDx=0;entryDy=0;startArrow=classicThin;startFill=0;endArrow=classicThin;endFill=0;strokeColor=#FF0000;" parent="AfU-c1p0oRzA97W1R4Gb-15" source="AfU-c1p0oRzA97W1R4Gb-7" target="AfU-c1p0oRzA97W1R4Gb-9" edge="1">
          <mxGeometry x="-0.1429" relative="1" as="geometry">
            <mxPoint as="offset" />
          </mxGeometry>
        </mxCell>
        <mxCell id="AfU-c1p0oRzA97W1R4Gb-16" value="Drone 1" style="swimlane;whiteSpace=wrap;html=1;" parent="1" vertex="1">
          <mxGeometry x="74" y="90" width="220" height="140" as="geometry">
            <mxRectangle x="140" y="230" width="140" height="30" as="alternateBounds" />
          </mxGeometry>
        </mxCell>
        <mxCell id="AfU-c1p0oRzA97W1R4Gb-17" value="" style="rhombus;whiteSpace=wrap;html=1;" parent="AfU-c1p0oRzA97W1R4Gb-16" vertex="1">
          <mxGeometry x="10" y="30" width="100" height="100" as="geometry" />
        </mxCell>
        <mxCell id="AfU-c1p0oRzA97W1R4Gb-18" value="" style="shape=image;verticalLabelPosition=bottom;labelBackgroundColor=default;verticalAlign=top;aspect=fixed;imageAspect=0;image=https://cdn-icons-png.flaticon.com/128/99/99466.png;" parent="AfU-c1p0oRzA97W1R4Gb-16" vertex="1">
          <mxGeometry x="60" y="65" width="30" height="30" as="geometry" />
        </mxCell>
        <mxCell id="AfU-c1p0oRzA97W1R4Gb-19" value="" style="shape=image;verticalLabelPosition=bottom;labelBackgroundColor=default;verticalAlign=top;aspect=fixed;imageAspect=0;image=https://cdn-icons-png.flaticon.com/128/2752/2752877.png;" parent="AfU-c1p0oRzA97W1R4Gb-16" vertex="1">
          <mxGeometry x="160" y="55" width="50" height="50" as="geometry" />
        </mxCell>
        <mxCell id="AfU-c1p0oRzA97W1R4Gb-20" value="" style="edgeStyle=orthogonalEdgeStyle;rounded=0;orthogonalLoop=1;jettySize=auto;html=1;exitX=0;exitY=0.5;exitDx=0;exitDy=0;entryX=1;entryY=0.5;entryDx=0;entryDy=0;startArrow=classicThin;startFill=0;endArrow=classicThin;endFill=0;strokeColor=#FF0000;" parent="AfU-c1p0oRzA97W1R4Gb-16" source="AfU-c1p0oRzA97W1R4Gb-19" target="AfU-c1p0oRzA97W1R4Gb-18" edge="1">
          <mxGeometry x="-0.1429" relative="1" as="geometry">
            <mxPoint as="offset" />
          </mxGeometry>
        </mxCell>
        <mxCell id="AfU-c1p0oRzA97W1R4Gb-21" value="Drone 3" style="swimlane;whiteSpace=wrap;html=1;" parent="1" vertex="1">
          <mxGeometry x="74" y="410" width="220" height="140" as="geometry">
            <mxRectangle x="140" y="230" width="140" height="30" as="alternateBounds" />
          </mxGeometry>
        </mxCell>
        <mxCell id="AfU-c1p0oRzA97W1R4Gb-22" value="" style="rhombus;whiteSpace=wrap;html=1;" parent="AfU-c1p0oRzA97W1R4Gb-21" vertex="1">
          <mxGeometry x="10" y="30" width="100" height="100" as="geometry" />
        </mxCell>
        <mxCell id="AfU-c1p0oRzA97W1R4Gb-23" value="" style="shape=image;verticalLabelPosition=bottom;labelBackgroundColor=default;verticalAlign=top;aspect=fixed;imageAspect=0;image=https://cdn-icons-png.flaticon.com/128/99/99466.png;" parent="AfU-c1p0oRzA97W1R4Gb-21" vertex="1">
          <mxGeometry x="60" y="65" width="30" height="30" as="geometry" />
        </mxCell>
        <mxCell id="AfU-c1p0oRzA97W1R4Gb-24" value="" style="shape=image;verticalLabelPosition=bottom;labelBackgroundColor=default;verticalAlign=top;aspect=fixed;imageAspect=0;image=https://cdn-icons-png.flaticon.com/128/2752/2752877.png;" parent="AfU-c1p0oRzA97W1R4Gb-21" vertex="1">
          <mxGeometry x="160" y="55" width="50" height="50" as="geometry" />
        </mxCell>
        <mxCell id="AfU-c1p0oRzA97W1R4Gb-25" value="" style="edgeStyle=orthogonalEdgeStyle;rounded=0;orthogonalLoop=1;jettySize=auto;html=1;exitX=0;exitY=0.5;exitDx=0;exitDy=0;entryX=1;entryY=0.5;entryDx=0;entryDy=0;startArrow=classicThin;startFill=0;endArrow=classicThin;endFill=0;strokeColor=#FF0000;" parent="AfU-c1p0oRzA97W1R4Gb-21" source="AfU-c1p0oRzA97W1R4Gb-24" target="AfU-c1p0oRzA97W1R4Gb-23" edge="1">
          <mxGeometry x="-0.1429" relative="1" as="geometry">
            <mxPoint as="offset" />
          </mxGeometry>
        </mxCell>
        <mxCell id="AfU-c1p0oRzA97W1R4Gb-26" style="edgeStyle=orthogonalEdgeStyle;rounded=0;orthogonalLoop=1;jettySize=auto;html=1;exitX=1;exitY=0.5;exitDx=0;exitDy=0;entryX=1;entryY=0.5;entryDx=0;entryDy=0;endArrow=openThin;endFill=0;startArrow=openThin;startFill=0;strokeColor=#82b366;fillColor=#d5e8d4;" parent="1" source="AfU-c1p0oRzA97W1R4Gb-19" target="AfU-c1p0oRzA97W1R4Gb-7" edge="1">
          <mxGeometry relative="1" as="geometry">
            <Array as="points">
              <mxPoint x="324" y="170" />
              <mxPoint x="324" y="330" />
            </Array>
          </mxGeometry>
        </mxCell>
        <mxCell id="AfU-c1p0oRzA97W1R4Gb-27" style="edgeStyle=orthogonalEdgeStyle;rounded=0;orthogonalLoop=1;jettySize=auto;html=1;exitX=1;exitY=0.5;exitDx=0;exitDy=0;entryX=1;entryY=0.5;entryDx=0;entryDy=0;endArrow=openThin;endFill=0;startArrow=openThin;startFill=0;strokeColor=#82b366;fillColor=#d5e8d4;" parent="1" source="AfU-c1p0oRzA97W1R4Gb-7" target="AfU-c1p0oRzA97W1R4Gb-24" edge="1">
          <mxGeometry relative="1" as="geometry">
            <mxPoint x="294" y="180" as="sourcePoint" />
            <mxPoint x="294" y="340" as="targetPoint" />
            <Array as="points">
              <mxPoint x="324" y="330" />
              <mxPoint x="324" y="490" />
            </Array>
          </mxGeometry>
        </mxCell>
        <mxCell id="AfU-c1p0oRzA97W1R4Gb-28" value="" style="edgeStyle=orthogonalEdgeStyle;rounded=0;orthogonalLoop=1;jettySize=auto;html=1;exitX=1;exitY=0.5;exitDx=0;exitDy=0;entryX=1;entryY=0.5;entryDx=0;entryDy=0;startArrow=openThin;startFill=0;endArrow=openThin;endFill=0;strokeColor=#82b366;fillColor=#d5e8d4;" parent="1" source="AfU-c1p0oRzA97W1R4Gb-24" target="AfU-c1p0oRzA97W1R4Gb-19" edge="1">
          <mxGeometry relative="1" as="geometry">
            <Array as="points">
              <mxPoint x="324" y="490" />
              <mxPoint x="324" y="170" />
            </Array>
          </mxGeometry>
        </mxCell>
        <mxCell id="AfU-c1p0oRzA97W1R4Gb-30" value="" style="edgeStyle=orthogonalEdgeStyle;rounded=0;orthogonalLoop=1;jettySize=auto;html=1;exitX=0.5;exitY=0;exitDx=0;exitDy=0;entryX=0.5;entryY=0;entryDx=0;entryDy=0;startArrow=classicThin;startFill=1;endArrow=classicThin;endFill=1;strokeColor=#0000FF;" parent="1" source="AfU-c1p0oRzA97W1R4Gb-18" target="AfU-c1p0oRzA97W1R4Gb-29" edge="1">
          <mxGeometry relative="1" as="geometry" />
        </mxCell>
        <mxCell id="AfU-c1p0oRzA97W1R4Gb-31" value="" style="edgeStyle=orthogonalEdgeStyle;rounded=0;orthogonalLoop=1;jettySize=auto;html=1;exitX=0.5;exitY=0;exitDx=0;exitDy=0;entryX=0;entryY=0.25;entryDx=0;entryDy=0;startArrow=classicThin;startFill=1;endArrow=classicThin;endFill=1;strokeColor=#0000FF;" parent="1" source="AfU-c1p0oRzA97W1R4Gb-9" target="AfU-c1p0oRzA97W1R4Gb-29" edge="1">
          <mxGeometry relative="1" as="geometry" />
        </mxCell>
        <mxCell id="AfU-c1p0oRzA97W1R4Gb-32" value="" style="edgeStyle=orthogonalEdgeStyle;rounded=0;orthogonalLoop=1;jettySize=auto;html=1;exitX=0.5;exitY=0;exitDx=0;exitDy=0;entryX=0.5;entryY=1;entryDx=0;entryDy=0;startArrow=classicThin;startFill=1;endArrow=classicThin;endFill=1;strokeColor=#0000FF;" parent="1" source="AfU-c1p0oRzA97W1R4Gb-23" target="AfU-c1p0oRzA97W1R4Gb-29" edge="1">
          <mxGeometry x="0.2821" relative="1" as="geometry">
            <Array as="points">
              <mxPoint x="149" y="460" />
              <mxPoint x="435" y="460" />
            </Array>
            <mxPoint as="offset" />
          </mxGeometry>
        </mxCell>
        <mxCell id="AfU-c1p0oRzA97W1R4Gb-43" value="Уловные обозначения" style="swimlane;whiteSpace=wrap;html=1;" parent="1" vertex="1">
          <mxGeometry x="590" y="60" width="200" height="230" as="geometry" />
        </mxCell>
        <mxCell id="AfU-c1p0oRzA97W1R4Gb-37" value="&amp;nbsp; MAVLink" style="edgeStyle=orthogonalEdgeStyle;rounded=0;orthogonalLoop=1;jettySize=auto;html=1;exitX=0.5;exitY=0;exitDx=0;exitDy=0;startArrow=classicThin;startFill=1;endArrow=classicThin;endFill=1;strokeColor=#0000FF;labelPosition=right;verticalLabelPosition=middle;align=left;verticalAlign=middle;" parent="AfU-c1p0oRzA97W1R4Gb-43" edge="1">
          <mxGeometry x="1" y="-1" relative="1" as="geometry">
            <mxPoint x="20" y="179.43" as="sourcePoint" />
            <mxPoint x="70" y="179.43" as="targetPoint" />
            <mxPoint as="offset" />
          </mxGeometry>
        </mxCell>
        <mxCell id="AfU-c1p0oRzA97W1R4Gb-39" value="&amp;nbsp; UART" style="edgeStyle=orthogonalEdgeStyle;rounded=0;orthogonalLoop=1;jettySize=auto;html=1;entryX=1;entryY=0.5;entryDx=0;entryDy=0;startArrow=classicThin;startFill=0;endArrow=classicThin;endFill=0;strokeColor=#FF0000;labelPosition=right;verticalLabelPosition=middle;align=left;verticalAlign=middle;" parent="AfU-c1p0oRzA97W1R4Gb-43" edge="1">
          <mxGeometry x="-1" y="1" relative="1" as="geometry">
            <mxPoint x="70" y="199.43" as="sourcePoint" />
            <mxPoint x="20" y="199.43" as="targetPoint" />
            <mxPoint as="offset" />
          </mxGeometry>
        </mxCell>
        <mxCell id="AfU-c1p0oRzA97W1R4Gb-40" value="     Микроконтроллер" style="shape=image;verticalLabelPosition=middle;labelBackgroundColor=default;verticalAlign=middle;aspect=fixed;imageAspect=0;image=https://cdn-icons-png.flaticon.com/128/99/99466.png;labelPosition=right;align=left;" parent="AfU-c1p0oRzA97W1R4Gb-43" vertex="1">
          <mxGeometry x="30" y="129.43" width="30" height="30" as="geometry" />
        </mxCell>
        <mxCell id="AfU-c1p0oRzA97W1R4Gb-41" value="  ESP" style="shape=image;verticalLabelPosition=middle;labelBackgroundColor=default;verticalAlign=middle;aspect=fixed;imageAspect=0;image=https://cdn-icons-png.flaticon.com/128/2752/2752877.png;labelPosition=right;align=left;" parent="AfU-c1p0oRzA97W1R4Gb-43" vertex="1">
          <mxGeometry x="20" y="79.43" width="50" height="50" as="geometry" />
        </mxCell>
        <mxCell id="FkduWA8ncYVS3PLSWbOL-14" value="  Базовая станция" style="group;labelPosition=right;verticalLabelPosition=middle;align=left;verticalAlign=middle;" vertex="1" connectable="0" parent="AfU-c1p0oRzA97W1R4Gb-43">
          <mxGeometry x="20" y="29.43" width="50" height="60.57" as="geometry" />
        </mxCell>
        <mxCell id="FkduWA8ncYVS3PLSWbOL-15" value="" style="shape=image;verticalLabelPosition=bottom;labelBackgroundColor=default;verticalAlign=top;aspect=fixed;imageAspect=0;image=https://www.shareicon.net/download/2016/02/13/718336_game_512x512.png;imageBorder=default;dashed=1;" vertex="1" parent="FkduWA8ncYVS3PLSWbOL-14">
          <mxGeometry width="50" height="50" as="geometry" />
        </mxCell>
        <mxCell id="AfU-c1p0oRzA97W1R4Gb-44" value="SITL&amp;nbsp;Drone 2" style="swimlane;whiteSpace=wrap;html=1;" parent="1" vertex="1">
          <mxGeometry x="74" y="790" width="126" height="140" as="geometry">
            <mxRectangle x="140" y="230" width="140" height="30" as="alternateBounds" />
          </mxGeometry>
        </mxCell>
        <mxCell id="AfU-c1p0oRzA97W1R4Gb-45" value="" style="rhombus;whiteSpace=wrap;html=1;" parent="AfU-c1p0oRzA97W1R4Gb-44" vertex="1">
          <mxGeometry x="10" y="30" width="100" height="100" as="geometry" />
        </mxCell>
        <mxCell id="AfU-c1p0oRzA97W1R4Gb-46" value="" style="shape=image;verticalLabelPosition=bottom;labelBackgroundColor=default;verticalAlign=top;aspect=fixed;imageAspect=0;image=https://cdn-icons-png.flaticon.com/128/99/99466.png;" parent="AfU-c1p0oRzA97W1R4Gb-44" vertex="1">
          <mxGeometry x="60" y="65" width="30" height="30" as="geometry" />
        </mxCell>
        <mxCell id="AfU-c1p0oRzA97W1R4Gb-49" value="SITL Drone 1" style="swimlane;whiteSpace=wrap;html=1;" parent="1" vertex="1">
          <mxGeometry x="74" y="630" width="126" height="140" as="geometry">
            <mxRectangle x="140" y="230" width="140" height="30" as="alternateBounds" />
          </mxGeometry>
        </mxCell>
        <mxCell id="AfU-c1p0oRzA97W1R4Gb-50" value="" style="rhombus;whiteSpace=wrap;html=1;" parent="AfU-c1p0oRzA97W1R4Gb-49" vertex="1">
          <mxGeometry x="10" y="30" width="100" height="100" as="geometry" />
        </mxCell>
        <mxCell id="AfU-c1p0oRzA97W1R4Gb-51" value="" style="shape=image;verticalLabelPosition=bottom;labelBackgroundColor=default;verticalAlign=top;aspect=fixed;imageAspect=0;image=https://cdn-icons-png.flaticon.com/128/99/99466.png;" parent="AfU-c1p0oRzA97W1R4Gb-49" vertex="1">
          <mxGeometry x="60" y="65" width="30" height="30" as="geometry" />
        </mxCell>
        <mxCell id="AfU-c1p0oRzA97W1R4Gb-54" value="SITL&amp;nbsp;Drone 3" style="swimlane;whiteSpace=wrap;html=1;" parent="1" vertex="1">
          <mxGeometry x="74" y="950" width="126" height="140" as="geometry">
            <mxRectangle x="140" y="230" width="140" height="30" as="alternateBounds" />
          </mxGeometry>
        </mxCell>
        <mxCell id="AfU-c1p0oRzA97W1R4Gb-55" value="" style="rhombus;whiteSpace=wrap;html=1;" parent="AfU-c1p0oRzA97W1R4Gb-54" vertex="1">
          <mxGeometry x="10" y="30" width="100" height="100" as="geometry" />
        </mxCell>
        <mxCell id="AfU-c1p0oRzA97W1R4Gb-56" value="" style="shape=image;verticalLabelPosition=bottom;labelBackgroundColor=default;verticalAlign=top;aspect=fixed;imageAspect=0;image=https://cdn-icons-png.flaticon.com/128/99/99466.png;" parent="AfU-c1p0oRzA97W1R4Gb-54" vertex="1">
          <mxGeometry x="60" y="65" width="30" height="30" as="geometry" />
        </mxCell>
        <mxCell id="AfU-c1p0oRzA97W1R4Gb-66" value="MAVProxy" style="rounded=1;whiteSpace=wrap;html=1;strokeWidth=2;" parent="1" vertex="1">
          <mxGeometry x="350" y="815" width="80" height="40" as="geometry" />
        </mxCell>
        <mxCell id="AfU-c1p0oRzA97W1R4Gb-67" value="" style="edgeStyle=orthogonalEdgeStyle;rounded=0;orthogonalLoop=1;jettySize=auto;html=1;exitX=0.5;exitY=0;exitDx=0;exitDy=0;entryX=0.5;entryY=0;entryDx=0;entryDy=0;startArrow=classicThin;startFill=1;endArrow=classicThin;endFill=1;strokeColor=#0000FF;" parent="1" source="AfU-c1p0oRzA97W1R4Gb-51" target="AfU-c1p0oRzA97W1R4Gb-66" edge="1">
          <mxGeometry relative="1" as="geometry">
            <mxPoint x="159" y="705" as="sourcePoint" />
            <mxPoint x="615" y="819" as="targetPoint" />
          </mxGeometry>
        </mxCell>
        <mxCell id="AfU-c1p0oRzA97W1R4Gb-68" value="" style="edgeStyle=orthogonalEdgeStyle;rounded=0;orthogonalLoop=1;jettySize=auto;html=1;exitX=0.5;exitY=0;exitDx=0;exitDy=0;entryX=0;entryY=0.5;entryDx=0;entryDy=0;startArrow=classicThin;startFill=1;endArrow=classicThin;endFill=1;strokeColor=#0000FF;" parent="1" source="AfU-c1p0oRzA97W1R4Gb-46" target="AfU-c1p0oRzA97W1R4Gb-66" edge="1">
          <mxGeometry relative="1" as="geometry">
            <mxPoint x="174" y="720" as="sourcePoint" />
            <mxPoint x="370" y="860" as="targetPoint" />
          </mxGeometry>
        </mxCell>
        <mxCell id="AfU-c1p0oRzA97W1R4Gb-69" value="" style="edgeStyle=orthogonalEdgeStyle;rounded=0;orthogonalLoop=1;jettySize=auto;html=1;exitX=0.5;exitY=0;exitDx=0;exitDy=0;entryX=0.5;entryY=1;entryDx=0;entryDy=0;startArrow=classicThin;startFill=1;endArrow=classicThin;endFill=1;strokeColor=#0000FF;" parent="1" source="AfU-c1p0oRzA97W1R4Gb-56" target="AfU-c1p0oRzA97W1R4Gb-66" edge="1">
          <mxGeometry relative="1" as="geometry">
            <mxPoint x="190" y="1029.76" as="sourcePoint" />
            <mxPoint x="346" y="1029.76" as="targetPoint" />
            <Array as="points">
              <mxPoint x="149" y="1000" />
              <mxPoint x="390" y="1000" />
            </Array>
          </mxGeometry>
        </mxCell>
        <mxCell id="AfU-c1p0oRzA97W1R4Gb-74" value="" style="edgeStyle=orthogonalEdgeStyle;rounded=0;orthogonalLoop=1;jettySize=auto;html=1;exitX=1;exitY=0.5;exitDx=0;exitDy=0;entryX=0;entryY=0.5;entryDx=0;entryDy=0;startArrow=classicThin;startFill=1;endArrow=classicThin;endFill=1;strokeColor=#0000FF;" parent="1" source="AfU-c1p0oRzA97W1R4Gb-66" edge="1">
          <mxGeometry relative="1" as="geometry">
            <mxPoint x="420" y="869.58" as="sourcePoint" />
            <mxPoint x="473" y="835" as="targetPoint" />
          </mxGeometry>
        </mxCell>
        <mxCell id="AfU-c1p0oRzA97W1R4Gb-77" value="Simulation" style="ellipse;shape=cloud;whiteSpace=wrap;html=1;strokeWidth=2;" parent="1" vertex="1">
          <mxGeometry x="225" y="838" width="120" height="80" as="geometry" />
        </mxCell>
        <mxCell id="AfU-c1p0oRzA97W1R4Gb-79" value="" style="edgeStyle=orthogonalEdgeStyle;rounded=0;orthogonalLoop=1;jettySize=auto;html=1;exitX=0.4;exitY=0.1;exitDx=0;exitDy=0;entryX=1;entryY=0.5;entryDx=0;entryDy=0;startArrow=classicThin;startFill=0;endArrow=classicThin;endFill=0;strokeColor=#FF0000;exitPerimeter=0;" parent="1" source="AfU-c1p0oRzA97W1R4Gb-77" target="AfU-c1p0oRzA97W1R4Gb-51" edge="1">
          <mxGeometry x="-0.1429" relative="1" as="geometry">
            <mxPoint x="364" y="695" as="sourcePoint" />
            <mxPoint x="294" y="695" as="targetPoint" />
            <mxPoint as="offset" />
            <Array as="points">
              <mxPoint x="273" y="710" />
            </Array>
          </mxGeometry>
        </mxCell>
        <mxCell id="AfU-c1p0oRzA97W1R4Gb-80" value="" style="edgeStyle=orthogonalEdgeStyle;rounded=0;orthogonalLoop=1;jettySize=auto;html=1;entryX=1;entryY=0.5;entryDx=0;entryDy=0;startArrow=classicThin;startFill=0;endArrow=classicThin;endFill=0;strokeColor=#FF0000;exitX=0.07;exitY=0.4;exitDx=0;exitDy=0;exitPerimeter=0;" parent="1" source="AfU-c1p0oRzA97W1R4Gb-77" target="AfU-c1p0oRzA97W1R4Gb-46" edge="1">
          <mxGeometry x="-0.1429" relative="1" as="geometry">
            <mxPoint x="433" y="907" as="sourcePoint" />
            <mxPoint x="174" y="870" as="targetPoint" />
            <mxPoint as="offset" />
            <Array as="points" />
          </mxGeometry>
        </mxCell>
        <mxCell id="AfU-c1p0oRzA97W1R4Gb-81" value="" style="edgeStyle=orthogonalEdgeStyle;rounded=0;orthogonalLoop=1;jettySize=auto;html=1;exitX=0.55;exitY=0.95;exitDx=0;exitDy=0;entryX=1;entryY=0.5;entryDx=0;entryDy=0;startArrow=classicThin;startFill=0;endArrow=classicThin;endFill=0;strokeColor=#FF0000;exitPerimeter=0;" parent="1" source="AfU-c1p0oRzA97W1R4Gb-77" target="AfU-c1p0oRzA97W1R4Gb-56" edge="1">
          <mxGeometry x="-0.1429" relative="1" as="geometry">
            <mxPoint x="459" y="1098" as="sourcePoint" />
            <mxPoint x="200" y="1030" as="targetPoint" />
            <mxPoint as="offset" />
            <Array as="points">
              <mxPoint x="291" y="1030" />
            </Array>
          </mxGeometry>
        </mxCell>
        <mxCell id="AfU-c1p0oRzA97W1R4Gb-82" value="&lt;h1 style=&quot;text-align: center; margin-top: 0px; margin-bottom: 0px;&quot;&gt;&lt;font style=&quot;font-size: 20px;&quot;&gt;Sim функционал&lt;/font&gt;&lt;/h1&gt;&lt;p&gt;&lt;/p&gt;&lt;ol style=&quot;padding-left: 20px;&quot;&gt;&lt;li style=&quot;&quot;&gt;&lt;span style=&quot;background-color: transparent; color: light-dark(rgb(0, 0, 0), rgb(255, 255, 255));&quot;&gt;&lt;font style=&quot;font-size: 11px;&quot;&gt;Приём данных через UART от SITL дронов.&lt;/font&gt;&lt;/span&gt;&lt;/li&gt;&lt;li style=&quot;&quot;&gt;&lt;span style=&quot;background-color: transparent; color: light-dark(rgb(0, 0, 0), rgb(255, 255, 255));&quot;&gt;&lt;font style=&quot;font-size: 11px;&quot;&gt;Вычисление видимости дронов друг для друга&lt;/font&gt;&lt;/span&gt;&lt;/li&gt;&lt;li style=&quot;&quot;&gt;&lt;span style=&quot;background-color: transparent; color: light-dark(rgb(0, 0, 0), rgb(255, 255, 255));&quot;&gt;&lt;font style=&quot;font-size: 11px;&quot;&gt;Преобразование данных (как это делает ESP).&lt;/font&gt;&lt;/span&gt;&lt;/li&gt;&lt;li style=&quot;&quot;&gt;&lt;span style=&quot;background-color: transparent; color: light-dark(rgb(0, 0, 0), rgb(255, 255, 255));&quot;&gt;&lt;font style=&quot;font-size: 11px;&quot;&gt;Отправка данных через UART в SITL дронов.&lt;/font&gt;&lt;/span&gt;&lt;/li&gt;&lt;/ol&gt;&lt;p&gt;&lt;/p&gt;" style="text;html=1;whiteSpace=wrap;overflow=hidden;rounded=0;" parent="1" vertex="1">
          <mxGeometry x="404" y="920" width="240" height="170" as="geometry" />
        </mxCell>
        <mxCell id="AfU-c1p0oRzA97W1R4Gb-83" value="IRL" style="swimlane;whiteSpace=wrap;html=1;" parent="1" vertex="1">
          <mxGeometry x="37" y="60" width="483" height="500" as="geometry" />
        </mxCell>
        <mxCell id="AfU-c1p0oRzA97W1R4Gb-84" value="In Simulation" style="swimlane;whiteSpace=wrap;html=1;" parent="1" vertex="1">
          <mxGeometry x="37" y="600" width="623" height="500" as="geometry" />
        </mxCell>
        <mxCell id="FkduWA8ncYVS3PLSWbOL-12" value="" style="shape=image;verticalLabelPosition=bottom;labelBackgroundColor=default;verticalAlign=top;aspect=fixed;imageAspect=0;image=https://www.shareicon.net/download/2016/02/13/718336_game_512x512.png;imageBorder=default;dashed=1;" vertex="1" parent="AfU-c1p0oRzA97W1R4Gb-84">
          <mxGeometry x="436.5" y="184.5" width="101" height="101" as="geometry" />
        </mxCell>
        <mxCell id="AfU-c1p0oRzA97W1R4Gb-85" value="&amp;nbsp; ESP-NOW" style="edgeStyle=orthogonalEdgeStyle;rounded=0;orthogonalLoop=1;jettySize=auto;html=1;endArrow=openThin;endFill=0;startArrow=openThin;startFill=0;strokeColor=#82b366;fillColor=#d5e8d4;labelPosition=right;verticalLabelPosition=middle;align=left;verticalAlign=middle;" parent="1" edge="1">
          <mxGeometry x="1" relative="1" as="geometry">
            <mxPoint x="610" y="280" as="sourcePoint" />
            <mxPoint x="660" y="280" as="targetPoint" />
            <Array as="points">
              <mxPoint x="660" y="280" />
              <mxPoint x="660" y="280" />
            </Array>
            <mxPoint as="offset" />
          </mxGeometry>
        </mxCell>
        <mxCell id="AfU-c1p0oRzA97W1R4Gb-29" value="" style="shape=image;verticalLabelPosition=bottom;labelBackgroundColor=default;verticalAlign=top;aspect=fixed;imageAspect=0;image=https://www.shareicon.net/download/2016/02/13/718336_game_512x512.png;imageBorder=default;dashed=1;" parent="1" vertex="1">
          <mxGeometry x="384" y="269" width="101" height="101" as="geometry" />
        </mxCell>
      </root>
    </mxGraphModel>
  </diagram>
</mxfile>
